<?xml version="1.0" encoding="utf-8"?>
<!-- Generator: Adobe Illustrator 21.1.0, SVG Export Plug-In . SVG Version: 6.00 Build 0)  -->
<svg version="1.1" id="Слой_1" xmlns="http://www.w3.org/2000/svg" xmlns:xlink="http://www.w3.org/1999/xlink" x="0px" y="0px"
	 viewBox="0 0 500 322.1" style="enable-background:new 0 0 500 322.1;" xml:space="preserve">
<style type="text/css">
	.st0{fill:#F72D62;}
	.st1{fill:#FFFFFF;stroke:#56565B;stroke-width:0.25;stroke-miterlimit:10;}
	.st2{fill:none;}
	.st3{font-family:'Roboto-Regular';}
	.st4{font-size:8px;}
	.st5{fill:none;stroke:#F6B61D;stroke-miterlimit:10;}
	.st6{fill:none;stroke:#74C8B5;stroke-miterlimit:10;}
	.st7{fill:none;stroke:#FF0000;stroke-miterlimit:10;}
	.st8{font-family:'MyriadPro-Regular';}
	.st9{font-size:10px;}
	.st10{fill:#8F930F;}
	.st11{fill:#790F82;}
	.st12{fill:#11260C;}
	.st13{fill:#50B361;}
	.st14{fill:#55BBA5;}
	.st15{fill:#FFFFFF;}
	.st16{fill:none;stroke:url(#SVGID_1_);stroke-miterlimit:10;}
</style>
<path class="st0" d="M197.3,128.5c3-1.8,7,0.5,10.7,1.5c4,1,7.7,0.6,10.8-1.2c3.2-1.8,5.5-5.3,7.7-9.2c2.1-3.8,4.1-7.8,7.1-10
	c2.8-2.1,6.4-2.6,10.6,1.2c0.3,0.3,0.3,1,0,0.8c-8.7-7-13.4,3.1-17.1,9.9c-2,3.6-4.2,6.8-7,8.6c-2.8,1.8-6.1,2.5-9.7,1.9
	c-4.1-0.6-9-3.8-12.4-2C197.4,130.2,196.9,128.8,197.3,128.5z"/>
<path class="st0" d="M199.5,184c4-1.9,8.8,0.3,13.3,1.2c4.9,1,9.6,0.4,13.8-1.5c4.3-2,7.7-5.6,11-9.6c3.2-4,6.4-8.1,10.4-10.5
	c3.8-2.2,8.5-2.8,13.2,0.9c0.3,0.3,0.2,1-0.1,0.8c-9.9-6.9-17.3,3.6-23,10.6c-3,3.8-6.2,7.1-10.1,9.1c-3.8,2-8.1,2.7-12.6,2.3
	c-5.1-0.5-10.7-3.7-15.4-1.7C199.4,185.7,199,184.2,199.5,184z"/>
<path class="st0" d="M376.7,265.3c4-1.8,8.8,1.2,13.4,2.7c4.9,1.6,9.6,1.4,13.9-0.4c4.3-1.8,7.9-5.6,11.2-9.9
	c3.3-4.2,6.5-8.6,10.6-11c3.9-2.2,8.6-2.4,13.2,2.3c0.3,0.3,0.2,1.2-0.1,0.9c-9.8-8.8-17.5,2.4-23.3,9.9c-3.1,4-6.4,7.4-10.3,9.3
	c-3.9,1.9-8.2,2.3-12.7,1.4c-5.1-1.1-10.7-5.2-15.4-3.4C376.6,267.3,376.2,265.6,376.7,265.3z"/>
<path class="st0" d="M246.9,254.8c1.2-5.6,6.3-9.3,10-13.6c4.1-4.6,6.9-10.1,8.2-15.9c1.4-6,0.9-12.1,0-18.4
	c-0.9-6.1-2-12.3-1.1-18.3c0.8-5.6,3.6-11.1,9.7-13.6c0.4-0.2,0.9,0.4,0.5,0.6c-12.2,6.1-9,21.2-7.4,32.1c0.9,5.8,1.3,11.5,0.2,17
	c-1.1,5.5-3.4,10.6-6.8,15.1c-3.9,5.2-10.2,9.1-11.8,15.5C248.2,256,246.7,255.5,246.9,254.8z"/>
<path class="st1" d="M321.2,107.5c6.2-1.3,12.3,1.6,18.3,3.1c6.6,1.7,13.3,1.8,19.9,0.5c6.7-1.3,12.7-4.4,18.6-8
	c5.8-3.5,11.5-7.2,18-8.9c6.1-1.7,12.9-1.6,18.2,2.8c0.4,0.3,0,1-0.4,0.8c-11.7-8.3-25.5,1.1-35.8,7.2c-5.5,3.3-11,6.1-17.2,7.5
	c-6,1.4-12.3,1.5-18.4,0.4c-7-1.3-13.9-5.2-21.1-4C320.5,109.2,320.4,107.6,321.2,107.5z"/>
<path class="st1" d="M323.1,81.5c6.3,0.6,11.3,5.1,16.6,8.4c5.8,3.5,12.2,5.6,18.9,6.3c6.8,0.7,13.4-0.5,20.1-2.2
	c6.5-1.6,13.1-3.5,19.8-3.3c6.3,0.2,12.8,2.3,16.6,8c0.3,0.4-0.3,1-0.6,0.6c-8.8-11.4-24.7-6.5-36.3-3.6c-6.2,1.5-12.4,2.6-18.6,2.2
	c-6.2-0.4-12.2-2.1-17.7-5c-6.3-3.3-11.8-9.1-19-9.9C321.9,82.9,322.3,81.4,323.1,81.5z"/>
<path class="st1" d="M432.9,109.9c2.6,2.9,1.4,7.7,1.4,11.8c0,4.5,1.4,8.4,4.1,11.4c2.7,3.1,6.8,5,11.2,6.7
	c4.4,1.6,8.9,3.1,11.9,5.9c2.8,2.6,4.3,6.5,1.7,11.6c-0.2,0.3-0.9,0.5-0.8,0.1c4.6-10.5-6.8-13.9-14.5-16.7
	c-4.1-1.5-7.9-3.3-10.5-6.1c-2.6-2.7-4.1-6.2-4.6-10.2c-0.5-4.5,1.4-10.3-1.3-13.7C431.2,110.3,432.5,109.5,432.9,109.9z"/>
<path class="st1" d="M413.6,20.7c4.2,3.5,5.1,9.5,7.1,14.6c2.1,5.6,5.5,10.3,9.9,14c4.5,3.8,10,6,15.9,7.8
	c5.7,1.8,11.6,3.4,16.3,6.8c4.4,3.1,7.9,7.9,7.2,14.3c0,0.4-0.8,0.6-0.8,0.2c0.4-13.3-14.1-16.9-24.2-20.1
	c-5.4-1.7-10.5-3.8-14.8-7.1c-4.2-3.3-7.6-7.5-9.9-12.4c-2.6-5.6-3.1-12.9-7.8-17C411.9,21.3,413,20.3,413.6,20.7z"/>
<rect x="74.3" y="117.7" class="st2" width="76.7" height="76.7"/>
<text transform="matrix(1 0 0 1 74.2603 123.7045)"><tspan x="0" y="0" class="st3 st4">Матанализ</tspan><tspan x="0" y="9.6" class="st3 st4"> (базовый)</tspan></text>
<path class="st5" d="M58.1,258.1"/>
<path class="st5" d="M72.3,279.9"/>
<path class="st1" d="M253.1,100.1c3.2-1.8,7.5,0.3,11.4,1.2c4.2,1,8.2,0.4,11.5-1.4c3.4-1.9,6-5.5,8.4-9.4c2.3-3.9,4.6-8,7.8-10.3
	c3-2.2,6.9-2.8,11.2,0.9c0.3,0.3,0.3,1,0,0.8c-9.1-6.8-14.3,3.5-18.5,10.4c-2.2,3.7-4.6,6.9-7.7,8.9c-3.1,1.9-6.6,2.7-10.4,2.2
	c-4.4-0.5-9.5-3.6-13.2-1.7C253.1,101.8,252.6,100.4,253.1,100.1z"/>
<rect x="422.9" y="255" class="st2" width="76.7" height="15.2"/>
<text transform="matrix(1 0 0 1 422.9428 261.0449)" class="st3 st4">DataScience</text>
<rect x="322.5" y="163.5" class="st2" width="76.7" height="76.7"/>
<text transform="matrix(1 0 0 1 322.5062 169.5174)"><tspan x="0" y="0" class="st3 st4">Machine </tspan><tspan x="0" y="9.6" class="st3 st4">Learning</tspan><tspan x="0" y="19.2" class="st3 st4">(expert)</tspan></text>
<polygon class="st2" points="355.2,295.1 357.7,295.1 357.7,295.1 355.2,295.1 "/>
<circle class="st6" cx="426.7" cy="99.7" r="7.7"/>
<rect x="426.7" y="44.9" class="st2" width="76.7" height="76.7"/>
<text transform="matrix(1 0 0 1 441.8043 50.8746)"><tspan x="0" y="0" class="st3 st4">DataAnalysis</tspan><tspan x="-7.6" y="9.6" class="st3 st4">for SocialScience</tspan></text>
<circle class="st7" cx="449.8" cy="239.8" r="13.9"/>
<circle class="st6" cx="472.3" cy="164.6" r="7.7"/>
<circle class="st2" cx="382.5" cy="259.3" r="7.7"/>
<text transform="matrix(1 0 0 1 382.4586 258.6535)" class="st8 st9"> </text>
<circle class="st7" cx="333.4" cy="200.1" r="7.7"/>
<circle class="st7" cx="275.1" cy="164.6" r="7.7"/>
<rect x="279.7" y="130.6" class="st2" width="43.7" height="76.7"/>
<text transform="matrix(1 0 0 1 279.6618 136.5514)"><tspan x="0" y="0" class="st3 st4">Machine </tspan><tspan x="0" y="9.6" class="st3 st4">Learning</tspan><tspan x="0" y="19.2" class="st3 st4">(beginner)</tspan></text>
<circle class="st6" cx="313.6" cy="83.2" r="7.7"/>
<rect x="310.5" y="67" class="st2" width="12.3" height="16"/>
<text transform="matrix(1 0 0 1 310.4696 73.016)" class="st3 st4">R</text>
<circle class="st7" cx="238.9" cy="270.4" r="7.7"/>
<rect x="202.3" y="245.4" class="st2" width="76.7" height="76.7"/>
<text transform="matrix(1 0 0 1 228.203 251.4294)"><tspan x="0" y="0" class="st3 st4">Python</tspan><tspan x="-16.4" y="9.6" class="st3 st4">(основа языка)</tspan></text>
<circle class="st7" cx="192.5" cy="137.6" r="7.7"/>
<rect x="211.6" y="82" class="st2" width="76.7" height="76.7"/>
<text transform="matrix(1 0 0 1 211.5585 88)" class="st3 st4">Мат. статистика</text>
<rect x="151.3" y="109.7" class="st2" width="76.7" height="76.7"/>
<text transform="matrix(1 0 0 1 171.0766 115.7045)"><tspan x="0" y="0" class="st3 st4">Линейная</tspan><tspan x="2.6" y="9.6" class="st3 st4"> алгебра</tspan></text>
<rect x="358.4" y="258.8" class="st2" width="76.7" height="76.7"/>
<text transform="matrix(1 0 0 1 358.3952 264.7686)" class="st3 st4">ggplot</text>
<ellipse transform="matrix(0.3399 -0.9404 0.9404 0.3399 -12.0124 534.4481)" class="st7" cx="374.7" cy="275.8" rx="7.7" ry="7.7"/>
<ellipse transform="matrix(0.3399 -0.9404 0.9404 0.3399 -144.648 321.6695)" class="st7" cx="156.8" cy="263.9" rx="7.7" ry="7.7"/>
<text transform="matrix(1 0 0 1 288.4464 53.7491)" class="st3 st4">SPSS</text>
<circle class="st6" cx="298.5" cy="65" r="7.7"/>
<text transform="matrix(1 0 0 1 308.1505 100.7107)" class="st3 st4">MATLAB</text>
<circle class="st6" cx="312.9" cy="109.8" r="7.7"/>
<text transform="matrix(1 0 0 1 343.7054 76.5001)"><tspan x="0" y="0" class="st3 st4">SAS </tspan><tspan x="-11.1" y="9.6" class="st3 st4">Data Miner</tspan></text>
<circle class="st6" cx="349.1" cy="60.9" r="7.7"/>
<path class="st1" d="M253.3,99.1c3.7-0.4,6.8,3.2,10,5.6c3.5,2.5,7.3,3.6,11.2,3.2c3.9-0.4,7.7-2.7,11.4-5.4
	c3.7-2.7,7.3-5.5,11.2-6.4c3.6-0.8,7.5,0.2,10,5.3c0.2,0.3-0.1,1-0.3,0.7c-5.7-9.8-14.6-2.4-21.1,2.3c-3.5,2.5-6.9,4.6-10.6,5.1
	c-3.6,0.6-7.1-0.1-10.5-2.1c-3.8-2.2-7.3-7-11.5-6.7C252.7,100.7,252.8,99.2,253.3,99.1z"/>
<path class="st1" d="M253.6,99.9c2.1-3,6.9-2.9,10.8-3.7c4.2-0.9,7.6-3.1,9.9-6.2c2.3-3.2,3.1-7.5,3.6-12.1
	c0.5-4.5,0.8-9.2,2.7-12.6c1.8-3.2,5.1-5.4,10.6-3.9c0.4,0.1,0.7,0.8,0.3,0.7c-11.1-2.4-11.5,9.2-12.3,17.2
	c-0.4,4.3-1.2,8.2-3.2,11.3c-2,3-4.9,5.2-8.5,6.4c-4.2,1.4-10.1,0.7-12.7,4C254.4,101.4,253.3,100.3,253.6,99.9z"/>
<path class="st1" d="M304.9,59c2.5-1,5.3,2.1,8,3.8c2.9,1.9,5.8,2.3,8.4,1.3c2.6-1,4.8-3.9,6.9-7.2c2-3.2,4-6.6,6.5-8.1
	c2.3-1.4,5.2-1,7.9,3.5c0.2,0.3,0.1,1-0.1,0.7c-5.8-8.7-10.5,0-14.1,5.7c-1.9,3-3.9,5.6-6.3,6.8c-2.4,1.1-5,1-7.6-0.3
	c-3.1-1.5-6.4-5.7-9.2-4.7C304.8,60.7,304.6,59.2,304.9,59z"/>
<path class="st0" d="M118.9,129.7c2.5-2.7,7.2-1.8,11.2-2.1c4.3-0.3,7.9-1.9,10.5-4.7c2.7-2.8,4.1-6.9,5.2-11.4
	c1.1-4.4,2-8.9,4.3-12c2.2-2.9,5.8-4.6,10.9-2.3c0.4,0.2,0.6,0.9,0.2,0.7c-10.6-3.9-12.6,7.4-14.4,15.2c-1,4.1-2.3,7.9-4.7,10.7
	c-2.3,2.7-5.5,4.4-9.2,5.1c-4.3,0.7-10-0.8-13,2.1C119.5,131.3,118.6,130,118.9,129.7z"/>
<path class="st1" d="M357.8,60c4.5,1.6,6.8,6.7,9.8,10.6c3.2,4.3,7.3,7.3,12.1,9.1c4.8,1.8,10.2,1.7,15.7,1.3
	c5.4-0.5,10.9-1.1,15.8,0.2c4.6,1.2,8.8,4.2,9.8,10.3c0.1,0.4-0.5,0.9-0.6,0.5c-2.9-12.2-16.4-10.2-26-9.4c-5.1,0.4-10.1,0.4-14.6-1
	c-4.5-1.4-8.4-4-11.6-7.6c-3.7-4.1-5.9-10.5-11-12.5C356.5,61.2,357.2,59.8,357.8,60z"/>
<rect x="427.2" y="173.5" class="st2" width="76.7" height="76.7"/>
<text transform="matrix(1 0 0 1 442.2947 179.5315)"><tspan x="0" y="0" class="st3 st4">DataAnalysis</tspan><tspan x="-4.6" y="9.6" class="st3 st4">for MedScience</tspan></text>
<circle class="st6" cx="476.5" cy="81" r="7.7"/>
<text transform="matrix(1 0 0 1 406.4292 79.5001)" class="st3 st4">DataAnalysis</text>
<path class="st1" d="M435.3,95.4c2-1.7,5.7,0.4,8.8,1.3c3.4,1,6.2,0.5,8.4-1.2c2.2-1.8,3.4-5.1,4.5-8.8c1-3.7,1.9-7.5,3.8-9.7
	c1.8-2,4.7-2.5,8.6,1.1c0.3,0.2,0.4,0.9,0.1,0.7c-8.1-6.6-10.1,3.1-11.8,9.6c-0.9,3.5-2.1,6.5-4.1,8.3c-1.9,1.8-4.4,2.4-7.4,1.9
	c-3.4-0.6-7.8-3.6-10.2-1.8C435.7,97,435,95.6,435.3,95.4z"/>
<text transform="matrix(1 0 0 1 362.8284 13.5002)"><tspan x="0" y="0" class="st10 st3 st4">Современная</tspan><tspan x="3.5" y="9.6" class="st10 st3 st4">социология</tspan></text>
<rect x="357.7" y="26.7" class="st2" width="76.7" height="76.7"/>
<text transform="matrix(1 0 0 1 357.6614 32.6633)" class="st11 st3 st4">перейти в раздел</text>
<text transform="matrix(1 0 0 1 363.6752 118.56)"><tspan x="0" y="0" class="st12 st3 st4">Основы </tspan><tspan x="-12" y="9.6" class="st12 st3 st4">фармакологии</tspan></text>
<rect x="347.9" y="130.4" class="st2" width="76.7" height="11"/>
<text transform="matrix(1 0 0 1 347.8716 136.3983)" class="st11 st3 st4">перейти в раздел</text>
<path class="st1" d="M415.1,130.9c3.4,1.8,4.1,6.7,5.6,10.5c1.7,4.2,4.4,7.3,7.9,9.2c3.6,2,8.2,2.3,12.9,2.2
	c4.7-0.1,9.5-0.3,13.3,1.2c3.6,1.4,6.4,4.5,5.7,10.2c0,0.4-0.7,0.8-0.7,0.4c0.5-11.5-11.3-10.6-19.6-10.5c-4.4,0.1-8.6-0.3-12-1.9
	c-3.4-1.6-6.1-4.3-7.9-7.9c-2.1-4.1-2.4-10.1-6.2-12.4C413.7,131.9,414.6,130.6,415.1,130.9z"/>
<path class="st0" d="M250,260.8c3.1-0.5,5.7,3.2,8.4,5.5c3,2.5,6.2,3.5,9.4,3.1c3.3-0.4,6.5-2.7,9.7-5.5c3.1-2.7,6.3-5.6,9.5-6.5
	c3.1-0.9,6.3,0.1,8.4,5.2c0.1,0.3-0.1,1-0.3,0.7c-4.7-9.8-12.3-2.3-17.8,2.5c-3,2.6-5.9,4.6-9,5.2c-3,0.6-6-0.1-8.8-2
	c-3.2-2.2-6.1-7-9.7-6.6C249.5,262.4,249.6,260.8,250,260.8z"/>
<path class="st0" d="M343.3,197.6c6.3,2.2,10.3,8,14.9,12.5c5.1,4.9,11.1,8.7,17.7,11.1c6.7,2.4,13.7,3,20.9,3.1
	c7,0.1,14.1,0.1,20.9,2c6.3,1.8,12.4,5.6,15,12.2c0.2,0.5-0.5,0.9-0.8,0.4c-6.2-13.4-23.6-12.8-36.1-13c-6.6-0.1-13.2-0.7-19.4-2.8
	c-6.2-2-11.9-5.3-16.8-9.5c-5.7-4.8-9.8-11.9-17-14.7C341.7,198.7,342.4,197.3,343.3,197.6z"/>
<path class="st0" d="M249.7,106.7c2.3,2.9,0.7,7.5,0.4,11.5c-0.4,4.3,0.7,8.1,3,11.2c2.4,3.1,6.2,5.2,10.5,7
	c4.2,1.8,8.5,3.4,11.3,6.3c2.6,2.7,3.7,6.5,0.6,11.3c-0.2,0.3-0.9,0.4-0.8,0.1c5.5-9.9-5.5-13.7-12.9-16.8c-3.9-1.7-7.5-3.6-9.8-6.4
	c-2.3-2.8-3.5-6.2-3.6-10c-0.1-4.4,2.3-9.9-0.1-13.3C248,107,249.4,106.3,249.7,106.7z"/>
<path class="st0" d="M284.4,169.1c3.2,1.6,3.6,6.3,4.8,10c1.4,4,3.8,6.9,7.1,8.6c3.3,1.7,7.6,1.9,12.1,1.6c4.4-0.3,8.9-0.7,12.5,0.6
	c3.3,1.2,5.8,4.1,5,9.7c-0.1,0.4-0.7,0.8-0.6,0.4c1-11.2-10.2-9.7-18.1-9.3c-4.2,0.2-8.1,0.1-11.3-1.4c-3.1-1.4-5.6-3.9-7.2-7.3
	c-1.8-3.9-1.8-9.7-5.3-11.7C283.1,170.1,284,168.9,284.4,169.1z"/>
<path class="st0" d="M306,249.2c0.8-3.1,5.2-4.1,8.4-5.7c3.5-1.8,5.7-4.4,6.6-7.6c0.9-3.3,0.1-7.1-1.2-11.2c-1.2-4-2.7-8-2.2-11.4
	c0.4-3.2,2.6-5.8,8.1-5.8c0.4,0,0.9,0.5,0.5,0.5c-10.9,0.6-7,10.6-4.8,17.6c1.2,3.7,1.9,7.3,1.3,10.4c-0.6,3-2.5,5.6-5.3,7.5
	c-3.3,2.2-8.9,3-10,6.4C307.3,250.3,305.9,249.7,306,249.2z"/>
<rect x="130.7" y="237.8" class="st2" width="76.7" height="76.7"/>
<text transform="matrix(1 0 0 1 154.208 243.7643)"><tspan x="0" y="0" class="st3 st4">Основы </tspan><tspan x="-22.1" y="9.6" class="st3 st4">программирования</tspan></text>
<path class="st0" d="M167.5,267.9c3.8-0.6,7.2,3,10.7,5.2c3.8,2.4,7.8,3.3,11.8,2.8c4.1-0.6,7.9-2.9,11.7-5.8
	c3.7-2.8,7.5-5.8,11.4-6.8c3.7-1,7.8-0.1,10.6,4.9c0.2,0.3-0.1,1-0.3,0.7c-6.3-9.6-15.3-1.9-21.9,3.1c-3.5,2.6-7.1,4.8-10.8,5.5
	c-3.7,0.7-7.4,0.1-11-1.7c-4.1-2.1-7.9-6.8-12.2-6.3C167,269.5,167,268,167.5,267.9z"/>
<path class="st13" d="M107.3,298.4c3.1-2.2,7.8-0.6,11.9-0.2c4.5,0.4,8.5-0.6,11.8-2.9c3.4-2.3,5.7-6.2,7.8-10.5
	c2-4.2,4-8.5,7.1-11.3c2.9-2.6,6.9-3.6,11.7-0.4c0.3,0.2,0.4,1,0.1,0.8c-10-5.7-14.5,5.3-18.1,12.7c-1.9,4-4.1,7.5-7.2,9.8
	c-3,2.3-6.6,3.5-10.6,3.5c-4.6,0-10.1-2.5-13.8-0.1C107.5,300,106.8,298.7,107.3,298.4z"/>
<path class="st0" d="M183,97.5c3.7-0.6,6.9,3,10.2,5.2c3.6,2.4,7.5,3.3,11.3,2.8c3.9-0.6,7.6-2.9,11.2-5.8c3.6-2.8,7.2-5.8,11-6.8
	c3.6-1,7.5-0.1,10.2,4.9c0.2,0.3-0.1,1-0.3,0.7c-6-9.6-14.7-1.9-21,3.1c-3.4,2.6-6.8,4.8-10.4,5.5c-3.5,0.7-7.1,0.1-10.5-1.7
	c-3.9-2.1-7.5-6.8-11.7-6.3C182.5,99.1,182.5,97.6,183,97.5z"/>
<rect x="266.4" y="222.3" class="st2" width="76.7" height="76.7"/>
<text transform="matrix(1 0 0 1 292.2975 228.2505)"><tspan x="0" y="0" class="st3 st4">Python</tspan><tspan x="-18.2" y="9.6" class="st3 st4">(Matplotlib,Scikit,</tspan><tspan x="-12" y="19.2" class="st3 st4">Numpy,Skipy)</tspan></text>
<ellipse transform="matrix(0.3399 -0.9404 0.9404 0.3399 -40.6288 458.3457)" class="st7" cx="306.2" cy="258.1" rx="7.7" ry="7.7"/>
<ellipse transform="matrix(0.3399 -0.9404 0.9404 0.3399 24.3874 226.2427)" class="st7" cx="173.4" cy="95.7" rx="7.7" ry="7.7"/>
<rect x="135.2" y="67.9" class="st2" width="83.2" height="20.7"/>
<text transform="matrix(1 0 0 1 136.2212 73.8715)"><tspan x="0" y="0" class="st3 st4">Теория вероятностей </tspan><tspan x="31.4" y="9.6" class="st3 st4">(баз)</tspan></text>
<path class="st0" d="M246,274.9c8.2-0.5,15.5,3.2,23,5.4c8.1,2.5,16.8,3.5,25.4,3c8.7-0.5,16.9-2.8,25-5.6
	c7.9-2.7,15.8-5.6,24.3-6.6c8-0.9,16.7,0.1,22.9,5.1c0.4,0.3-0.2,1-0.6,0.7c-13.7-9.8-32.8-2.2-46.9,2.6c-7.5,2.6-15.1,4.7-23.1,5.3
	c-7.9,0.6-15.9,0-23.6-1.9c-8.8-2.2-17-7-26.3-6.6C244.8,276.5,244.9,275,246,274.9z"/>
<path class="st0" d="M110.9,146.8c4.7-1.4,9.6,1.4,14.4,2.8c5.2,1.5,10.4,1.6,15.4,0.2c5-1.4,9.4-4.6,13.7-8.2
	c4.2-3.6,8.3-7.3,13.2-9.2c4.5-1.8,9.8-1.8,14.2,2.5c0.3,0.3,0.1,1-0.3,0.8c-9.7-8.1-19.6,1.5-27,7.8c-4,3.4-8,6.3-12.6,7.8
	c-4.5,1.5-9.3,1.7-14.1,0.7c-5.5-1.2-11.1-5-16.5-3.6C110.5,148.5,110.2,147,110.9,146.8z"/>
<circle class="st7" cx="185.5" cy="190.6" r="7.7"/>
<rect x="165.4" y="162.8" class="st2" width="48.8" height="76.7"/>
<text transform="matrix(1 0 0 1 165.3773 168.7678)"><tspan x="0" y="0" class="st3 st4">Матанализ </tspan><tspan x="14.8" y="9.6" class="st3 st4">(про)</tspan></text>
<path class="st0" d="M104.6,155c5,1.4,8,6.5,11.6,10.4c3.9,4.2,8.6,7.2,13.9,8.7c5.4,1.6,11.1,1.4,17,0.7c5.7-0.7,11.6-1.5,17-0.4
	c5.1,1,9.9,4,11.6,10.1c0.1,0.4-0.5,0.9-0.6,0.5c-4.4-12.2-18.7-9.7-28.9-8.5c-5.4,0.6-10.7,0.8-15.7-0.5c-4.9-1.3-9.5-3.8-13.3-7.3
	c-4.4-4-7.5-10.4-13.1-12.2C103.3,156.2,103.9,154.8,104.6,155z"/>
<rect x="57.8" y="275.7" class="st2" width="76.7" height="76.7"/>
<text transform="matrix(1 0 0 1 81.3013 281.7293)"><tspan x="0" y="0" class="st3 st4">Основы </tspan><tspan x="-5" y="9.6" class="st3 st4">анг. языка</tspan></text>
<rect x="-9.4" y="121.9" class="st2" width="76.7" height="76.7"/>
<text transform="matrix(1 0 0 1 13.5654 127.9112)"><tspan x="0" y="0" class="st3 st4">Алгебра </tspan><tspan x="-6.5" y="9.6" class="st3 st4">9-11 класса </tspan></text>
<path class="st13" d="M38.4,147.4c3.1-0.8,6.1,2.6,9.1,4.6c3.2,2.2,6.6,2.9,9.8,2.1c3.3-0.8,6.3-3.4,9.2-6.5c2.9-3,5.7-6.2,8.9-7.5
	c3-1.2,6.4-0.6,9,4.3c0.2,0.3,0,1-0.2,0.7c-5.8-9.2-12.6-1-17.7,4.4c-2.7,2.8-5.5,5.2-8.5,6.1c-3,0.9-6.1,0.6-9.1-1
	c-3.5-1.8-6.9-6.3-10.4-5.6C38,149,37.9,147.5,38.4,147.4z"/>
<path class="st13" d="M35.4,158.7c7.2,7.5,16.3,11.6,24.7,16.8c9.1,5.6,17.7,12.6,25.4,20.4c7.8,8,13.9,16.7,19.6,25.7
	c5.6,8.8,11.1,17.7,18.3,25.8c6.8,7.6,15.5,14.7,24.4,16.9c0.6,0.1,0.5-0.8-0.1-1c-18.8-5.8-31.7-27.6-41.7-43.1
	c-5.3-8.3-11-16.3-18-23.8c-6.9-7.4-14.8-14.1-23-19.6c-9.5-6.4-20.1-10.5-28.5-19C35.4,156.7,34.5,157.7,35.4,158.7z"/>
<circle class="st14" cx="96.2" cy="304.5" r="7.8"/>
<circle class="st6" cx="96.4" cy="304.5" r="9.2"/>
<circle class="st14" cx="95.6" cy="146.2" r="7.8"/>
<circle class="st14" cx="26.2" cy="149.1" r="7.8"/>
<circle class="st6" cx="26.4" cy="149.1" r="9.2"/>
<g>
	<g>
		<path class="st15" d="M100.6,183.8c1.6,0,2.2-2.1,0.3-2.1C99.3,181.7,98.7,183.8,100.6,183.8L100.6,183.8z"/>
	</g>
</g>
<ellipse transform="matrix(0.3399 -0.9404 0.9404 0.3399 68.8915 295.7138)" class="st7" cx="245.1" cy="98.8" rx="7.7" ry="7.7"/>
<linearGradient id="SVGID_1_" gradientUnits="userSpaceOnUse" x1="57.1653" y1="256.6505" x2="76.5244" y2="256.6505" gradientTransform="matrix(0.8192 0.5736 -0.5736 0.8192 188.0488 -102.3572)">
	<stop  offset="0.8014" style="stop-color:#55BBA5"/>
	<stop  offset="0.8162" style="stop-color:#FFFFFF;stop-opacity:0"/>
</linearGradient>
<ellipse transform="matrix(0.5736 -0.8192 0.8192 0.5736 -79.0112 140.6592)" class="st16" cx="95.6" cy="146.2" rx="9.2" ry="9.2"/>
</svg>
