<?xml version="1.0" standalone="no"?>
<!DOCTYPE svg PUBLIC "-//W3C//DTD SVG 20010904//EN"
 "http://www.w3.org/TR/2001/REC-SVG-20010904/DTD/svg10.dtd">
<svg version="1.0" xmlns="http://www.w3.org/2000/svg"
 width="700.000000pt" height="700.000000pt" viewBox="0 0 700.000000 700.000000"
 preserveAspectRatio="xMidYMid meet">
<metadata>
Created by potrace 1.11, written by Peter Selinger 2001-2013
</metadata>
<g transform="translate(0.000000,700.000000) scale(0.100000,-0.100000)"
fill="#000000" stroke="none">
<path d="M2330 4955 l-1165 -1165 585 0 585 0 -1 -1020 -1 -1020 1167 0 1167
0 -1 1020 -1 1020 585 0 585 0 -1165 1165 c-641 641 -1167 1165 -1170 1165 -3
0 -529 -524 -1170 -1165z"/>
<path d="M2337 1452 c-7 -12 -5 -282 2 -283 3 0 527 -2 1164 -2 1021 -2 1158
0 1161 13 2 8 4 75 3 147 l-1 133 -1162 0 c-640 0 -1165 -4 -1167 -8z"/>
<path d="M2335 855 c-2 -11 -3 -76 -2 -145 l2 -125 1165 0 1165 0 1 145 2 145
-1165 0 c-1157 0 -1164 0 -1168 -20z"/>
</g>
</svg>
